<svg width="126" height="67" viewBox="0 0 126 67" fill="none" xmlns="http://www.w3.org/2000/svg">
<g clip-path="url(#clip0_60874_3090)">
<path d="M60.6755 52.051C59.5186 52.051 58.5759 51.1136 58.5759 49.963V32.7609C58.5759 31.6104 59.5186 30.6729 60.6755 30.6729C61.8324 30.6729 62.775 31.6104 62.775 32.7609V49.963C62.7831 51.1136 61.8404 52.051 60.6755 52.051Z" fill="url(#paint0_linear_60874_3090)"/>
<path d="M31.4799 67C29.1554 67 27.2701 65.1251 27.2701 62.8133V4.18667C27.2701 1.87495 29.1554 0 31.4799 0C33.8044 0 35.6897 1.87495 35.6897 4.18667V62.816C35.6897 65.1277 33.8044 67.0027 31.4799 67.0027V67Z" fill="url(#paint1_linear_60874_3090)"/>
<path d="M20.326 63.1596C18.3925 63.1596 16.8205 61.5962 16.8205 59.6733V9.86743C16.8205 7.94455 18.3925 6.38121 20.326 6.38121C22.2596 6.38121 23.8315 7.94455 23.8315 9.86743V59.6733C23.8315 60.6508 22.2596 63.1596 20.326 63.1596Z" fill="url(#paint2_linear_60874_3090)"/>
<path d="M42.5776 63.1596C40.644 63.1596 39.072 61.5962 39.072 59.6733V9.86743C39.072 7.94455 40.644 6.38121 42.5776 6.38121C44.5111 6.38121 46.0831 7.94455 46.0831 9.86743V59.6733C46.0831 61.5962 44.5111 63.1596 42.5776 63.1596Z" fill="url(#paint3_linear_60874_3090)"/>
<path d="M10.5112 58.6613C8.96595 58.6613 7.70729 57.4122 7.70729 55.8728V20.8534C7.70729 19.3167 8.96327 18.065 10.5112 18.065C12.0564 18.065 13.315 19.3141 13.315 20.8534V55.8755C13.315 57.4122 12.059 58.6639 10.5112 58.6639V58.6613Z" fill="url(#paint4_linear_60874_3090)"/>
<path d="M52.5317 58.6613C50.9865 58.6613 49.7278 57.4122 49.7278 55.8728V20.8534C49.7278 19.3167 50.9838 18.065 52.5317 18.065C54.0769 18.065 55.3356 19.3141 55.3356 20.8534V55.8755C55.3356 57.4122 54.0796 58.6639 52.5317 58.6639V58.6613Z" fill="url(#paint5_linear_60874_3090)"/>
<path d="M2.14508 52.051C0.988181 52.051 0.0455246 51.1136 0.0455246 49.963V32.7609C0.0455246 31.6104 0.988181 30.6729 2.14508 30.6729C3.30198 30.6729 4.24463 31.6104 4.24463 32.7609V49.963C4.25267 51.1136 3.31001 52.051 2.14508 52.051Z" fill="url(#paint6_linear_60874_3090)"/>
<g opacity="0.9">
<path d="M27.2272 62.816C27.2272 65.1277 29.1126 67.0027 31.4371 67.0027C33.7616 67.0027 35.6469 65.1277 35.6469 62.816V40.9771H27.2299V62.816H27.2272Z" fill="url(#paint7_linear_60874_3090)"/>
<path d="M16.7777 59.6733C16.7777 61.5962 18.3497 63.1596 20.2832 63.1596C22.2167 63.1596 23.7887 60.6507 23.7887 59.6733V40.9771H16.7777V59.6733Z" fill="url(#paint8_linear_60874_3090)"/>
<path d="M39.0265 59.6733C39.0265 61.5962 40.5985 63.1596 42.532 63.1596C44.4655 63.1596 46.0375 61.5962 46.0375 59.6733V40.9771H39.0265V59.6733Z" fill="url(#paint9_linear_60874_3090)"/>
<path d="M7.66444 55.8755C7.66444 57.4122 8.92043 58.6639 10.4683 58.6639C12.0162 58.6639 13.2722 57.4149 13.2722 55.8755V40.9771H7.66712V55.8755H7.66444Z" fill="url(#paint10_linear_60874_3090)"/>
<path d="M49.685 55.8755C49.685 57.4122 50.941 58.6639 52.4888 58.6639C54.0367 58.6639 55.2927 57.4149 55.2927 55.8755V40.9771H49.6876V55.8755H49.685Z" fill="url(#paint11_linear_60874_3090)"/>
<path d="M0 49.963C0 51.1136 0.942657 52.051 2.09955 52.051C3.25645 52.051 4.20714 51.1136 4.19911 49.963V40.9771H0V49.963Z" fill="url(#paint12_linear_60874_3090)"/>
<path d="M58.5331 49.963C58.5331 51.1136 59.4758 52.051 60.6326 52.051C61.7895 52.051 62.7402 51.1136 62.7322 49.963V40.9771H58.5331V49.963Z" fill="url(#paint13_linear_60874_3090)"/>
</g>
<path d="M87.0779 35.8557C87.0779 31.7569 90.6075 30.348 93.7702 29.2454C94.0354 29.1522 94.2094 28.9072 94.2094 28.6275V27.3625C94.2094 26.4676 94.0006 25.8418 93.1918 25.8418C92.383 25.8418 92.142 26.4383 92.1126 27.2133C92.0456 27.9164 91.4377 28.4438 90.7307 28.4145L89.3649 28.3612C88.2402 28.3159 87.4555 27.2426 87.7421 26.1587C88.4491 23.4848 90.3692 22.2357 93.6444 22.2357C97.1499 22.2357 98.8879 24.3823 98.8879 27.4211V37.8478C98.8879 39.0676 97.8944 40.0556 96.6678 40.0556C95.4333 40.0556 94.4344 39.0489 94.4478 37.8212C94.4505 37.5442 94.4478 37.4004 94.421 37.3151C94.0005 38.7453 92.9213 40.0556 91.0949 40.0556C88.4571 40.0556 87.0806 37.8798 87.0806 35.853L87.0779 35.8557ZM94.2094 35.347V32.2762C94.2094 31.7968 93.6604 31.5225 93.2721 31.8048C92.1795 32.5958 91.4832 33.5333 91.4832 34.9022C91.4832 36.0634 91.9921 36.7798 92.8329 36.7798C93.1463 36.7798 93.4194 36.6653 93.6551 36.4922C94.0166 36.2285 94.2121 35.7917 94.2121 35.3443L94.2094 35.347Z" fill="#0087FF"/>
<path d="M103.208 22.8349C104.327 22.8349 105.272 23.6605 105.417 24.7631L106.386 32.183C106.418 32.4254 106.769 32.4227 106.799 32.183L107.688 24.7738C107.819 23.6685 108.764 22.8349 109.884 22.8349C111.284 22.8349 112.331 24.1133 112.048 25.4769L109.538 37.6001C109.241 39.033 107.974 40.061 106.504 40.061C105.029 40.061 103.757 39.025 103.467 37.5868L101.025 25.4875C100.749 24.1159 101.802 22.8376 103.208 22.8376V22.8349Z" fill="#0087FF"/>
<path d="M114.222 34.3056V27.9884C114.222 24.2944 116.498 22.2383 120.245 22.2383C123.991 22.2383 125.997 24.2358 125.997 27.9884V29.4239C125.997 30.5398 125.087 31.4453 123.965 31.4453H120.304C119.608 31.4453 119.045 32.0072 119.045 32.697V34.7504C119.045 36.0927 119.525 36.5987 120.245 36.5987C120.965 36.5987 121.504 36.1806 121.504 34.9288V34.7797C121.504 33.8582 122.256 33.1098 123.183 33.1098H124.321C125.247 33.1098 126 33.8582 126 34.7797C126 38.2659 123.842 40.053 120.248 40.053C116.472 40.053 114.225 37.9676 114.225 34.303L114.222 34.3056ZM120.85 29.1815C121.212 29.1815 121.506 28.8912 121.506 28.529V27.453C121.506 26.0814 120.968 25.6953 120.218 25.6953C119.468 25.6953 119.051 26.1427 119.051 27.722V28.5317C119.051 28.8912 119.342 29.1842 119.707 29.1842H120.853L120.85 29.1815Z" fill="#0087FF"/>
<path d="M71.5776 18.9039H71.8588C72.7854 18.9039 73.5727 19.5751 73.7174 20.4832L75.0644 28.9658C75.1233 29.3333 75.6536 29.336 75.7152 28.9658L76.4489 24.5421C76.6123 23.554 77.4719 22.8296 78.4788 22.8296C79.5045 22.8296 80.3749 23.5833 80.5168 24.5927L81.1488 29.1149C81.1997 29.4851 81.7353 29.4931 81.7996 29.1256L83.2992 20.4539C83.4546 19.5564 84.2366 18.8986 85.1551 18.8986C86.3067 18.8986 87.1877 19.9186 87.0163 21.0505L84.424 37.9996C84.2446 39.1794 83.2243 40.0503 82.0245 40.0503H82.0004C80.8034 40.0503 79.783 39.1821 79.6009 38.0023L78.7252 32.3508C78.669 31.9833 78.1387 31.9779 78.0745 32.3455L77.0863 38.0475C76.8854 39.2061 75.8758 40.053 74.6948 40.053C73.4924 40.053 72.4721 39.1794 72.2927 37.9969L69.7245 21.0505C69.5531 19.9186 70.4341 18.9013 71.5857 18.9013L71.5776 18.9039Z" fill="#0087FF"/>
<path d="M82.295 50.4264V46.032C82.295 43.462 83.8804 42.0318 86.4861 42.0318C89.0918 42.0318 90.4897 43.422 90.4897 46.032V47.2465C90.4897 47.9043 89.9541 48.437 89.2926 48.437H86.5664C86.063 48.437 85.6532 48.8445 85.6532 49.3451V50.738C85.6532 51.6702 85.9853 52.0244 86.4861 52.0244C86.9869 52.0244 87.3618 51.7341 87.3618 50.8632V50.7593C87.3618 50.1175 87.884 49.5982 88.5294 49.5982H89.3221C89.9675 49.5982 90.4897 50.1175 90.4897 50.7593C90.4897 53.1856 88.99 54.4293 86.4861 54.4293C83.859 54.4293 82.295 52.9779 82.295 50.4291V50.4264ZM86.5048 46.8603C86.9761 46.8603 87.3591 46.4795 87.3591 46.0107V45.6592C87.3591 44.7057 86.9842 44.4367 86.462 44.4367C85.9398 44.4367 85.6479 44.7483 85.6479 45.8456V46.0107C85.6479 46.4795 86.0308 46.8603 86.5021 46.8603H86.5048Z" fill="#0087FF"/>
<path d="M92.9401 50.8765C93.4944 50.6315 94.1452 50.8206 94.4906 51.3186C94.8575 51.846 95.2914 52.1496 95.7841 52.1496C96.3063 52.1496 96.5768 51.9205 96.5768 51.529C96.5768 50.8872 96.159 50.533 94.9084 49.497L94.0327 48.7726C92.7606 47.6939 91.968 46.823 91.968 45.3316C91.968 43.3821 93.6979 42.0345 95.6797 42.0345C97.1874 42.0345 98.3336 42.6843 99.0352 43.8641C99.4101 44.4953 99.1396 45.313 98.4701 45.6166C97.9131 45.8696 97.2543 45.6805 96.9115 45.1771C96.6116 44.7377 96.2153 44.3968 95.7654 44.3968C95.3155 44.3968 95.0369 44.6658 95.0369 45.0813C95.0369 45.6006 95.6609 46.1812 96.7268 47.0308L97.581 47.7765C98.6228 48.6474 99.7502 49.6434 99.7502 51.1775C99.7502 53.2708 97.9774 54.432 96.0599 54.432C94.4612 54.432 93.2802 53.9287 92.4232 52.7515C91.9572 52.1096 92.217 51.2015 92.9454 50.8792L92.9401 50.8765Z" fill="#0087FF"/>
<path d="M106.164 56.2777C106.164 55.5106 106.526 54.9087 107.109 54.4453C107.433 54.187 107.399 53.6943 107.067 53.4466C106.617 53.1084 106.373 52.6316 106.373 51.9845C106.373 51.2361 106.681 50.6795 107.214 50.1255C107.466 49.8645 107.476 49.4677 107.259 49.18C106.775 48.5329 106.518 47.6779 106.518 46.554C106.518 43.8588 108.06 42.386 110.832 42.386C111.59 42.386 112.235 42.5005 112.773 42.7296C113.33 42.9666 113.96 42.8787 114.439 42.5085C114.651 42.3461 114.889 42.1969 115.149 42.0744C115.39 41.9599 115.682 42.0611 115.799 42.3008L116.148 43.0119C116.271 43.2622 116.156 43.5658 115.896 43.6724C115.596 43.7976 115.234 43.9627 114.91 44.1225C114.691 44.2317 114.578 44.4873 114.664 44.719C114.862 45.2597 114.983 45.9095 114.983 46.5754C114.983 49.1667 113.585 50.7008 110.834 50.7008C110.259 50.7008 109.718 50.6315 109.238 50.5117C108.858 50.4158 108.462 50.6954 108.456 51.0869C108.456 51.0896 108.456 51.0923 108.456 51.0949C108.456 51.4278 108.748 51.6143 109.603 51.7181L112.771 52.0697C114.835 52.2987 115.773 53.4386 115.773 55.2017C115.773 57.5028 114.335 58.7252 110.623 58.7252C107.913 58.7252 106.161 57.9369 106.161 56.2777H106.164ZM113.44 55.3242C113.44 54.7436 113.022 54.5359 111.627 54.3921L109.951 54.2216C109.463 54.171 108.979 54.416 108.778 54.8608C108.719 54.9913 108.687 55.1325 108.687 55.2843C108.687 55.9474 109.332 56.2803 111.065 56.2803C112.586 56.2803 113.44 56.0939 113.44 55.3269V55.3242ZM111.772 46.554C111.772 44.9774 111.606 44.3968 110.834 44.3968C110.063 44.3968 109.897 44.9561 109.897 46.554C109.897 48.152 110.063 48.69 110.834 48.69C111.606 48.69 111.772 48.1307 111.772 46.554Z" fill="#0087FF"/>
<path d="M123.445 42.0291C121.919 42.0291 121.33 42.8601 120.773 43.2356C120.649 43.3182 120.475 43.2702 120.422 43.1291C120.186 42.4872 119.565 42.0291 118.836 42.0291C117.91 42.0291 117.16 42.7722 117.149 43.6884V43.7043V46.064V52.5358C117.149 53.4626 117.904 54.2163 118.839 54.2163H118.86C119.792 54.2163 120.55 53.4652 120.55 52.5358V45.5553C120.55 44.9907 120.957 44.4793 121.522 44.4128C121.555 44.4101 121.584 44.4074 121.613 44.4074C122.136 44.4074 122.302 44.719 122.302 45.2996V52.4665C122.302 53.3853 123.014 54.187 123.938 54.2163C124.894 54.2456 125.679 53.4812 125.679 52.5384V44.8256C125.679 43.2303 124.929 42.0265 123.448 42.0265L123.445 42.0291Z" fill="#0087FF"/>
<path d="M102.859 45.3689C103.787 45.3689 104.538 44.6213 104.538 43.699C104.538 42.7768 103.787 42.0291 102.859 42.0291C101.932 42.0291 101.18 42.7768 101.18 43.699C101.18 44.6213 101.932 45.3689 102.859 45.3689Z" fill="#0087FF"/>
<path d="M102.881 46.088C103.818 46.088 104.579 46.8443 104.579 47.7765V52.7355C104.579 53.6676 103.818 54.424 102.881 54.424C101.944 54.424 101.183 53.6676 101.183 52.7355V47.7765C101.183 46.8443 101.944 46.088 102.881 46.088Z" fill="#0087FF"/>
<path d="M71.3527 43.454C71.3527 42.6657 71.9954 42.0291 72.7854 42.0291H75.5143C79.8232 42.0291 81.106 43.6591 81.106 47.3397V53.5079C81.106 57.2711 79.8232 58.9649 75.5973 58.9649H72.7854C71.9927 58.9649 71.3527 58.3257 71.3527 57.54V43.4567V43.454ZM75.5572 56.56C77.4478 56.56 77.5549 55.6624 77.5549 53.8834V46.879C77.5549 45.1638 77.3648 44.4527 75.5357 44.4527C75.1287 44.4527 74.7993 44.7803 74.7993 45.1851V55.8276C74.7993 56.2324 75.1287 56.56 75.5357 56.56H75.5572Z" fill="#0087FF"/>
</g>
<defs>
<linearGradient id="paint0_linear_60874_3090" x1="60.6755" y1="30.6729" x2="60.6755" y2="52.051" gradientUnits="userSpaceOnUse">
<stop stop-color="#0087FF"/>
<stop offset="1" stop-color="#66308C"/>
</linearGradient>
<linearGradient id="paint1_linear_60874_3090" x1="31.4799" y1="0" x2="31.4799" y2="67" gradientUnits="userSpaceOnUse">
<stop offset="0.5" stop-color="#0087FF"/>
<stop offset="0.56" stop-color="#2095D1"/>
<stop offset="0.64" stop-color="#40A3A5"/>
<stop offset="0.71" stop-color="#5AAF80"/>
<stop offset="0.78" stop-color="#6EB864"/>
<stop offset="0.86" stop-color="#7DBE50"/>
<stop offset="0.93" stop-color="#86C244"/>
<stop offset="1" stop-color="#89C440"/>
</linearGradient>
<linearGradient id="paint2_linear_60874_3090" x1="20.326" y1="6.38121" x2="20.326" y2="63.1596" gradientUnits="userSpaceOnUse">
<stop offset="0.5" stop-color="#0087FF"/>
<stop offset="0.56" stop-color="#3895C7"/>
<stop offset="0.62" stop-color="#6CA394"/>
<stop offset="0.69" stop-color="#99AF68"/>
<stop offset="0.75" stop-color="#BDB844"/>
<stop offset="0.81" stop-color="#DAC028"/>
<stop offset="0.88" stop-color="#EEC514"/>
<stop offset="0.94" stop-color="#FAC808"/>
<stop offset="1" stop-color="#FFCA05"/>
</linearGradient>
<linearGradient id="paint3_linear_60874_3090" x1="42.5776" y1="6.38121" x2="42.5776" y2="63.1596" gradientUnits="userSpaceOnUse">
<stop offset="0.5" stop-color="#0087FF"/>
<stop offset="0.6" stop-color="#0092DB"/>
<stop offset="0.7" stop-color="#009BBF"/>
<stop offset="0.8" stop-color="#00A1AB"/>
<stop offset="0.9" stop-color="#00A59F"/>
<stop offset="1" stop-color="#01A79B"/>
</linearGradient>
<linearGradient id="paint4_linear_60874_3090" x1="10.5112" y1="18.065" x2="10.5112" y2="58.6613" gradientUnits="userSpaceOnUse">
<stop offset="0.5" stop-color="#0087FF"/>
<stop offset="0.55" stop-color="#2A82D8"/>
<stop offset="0.61" stop-color="#5E7DA9"/>
<stop offset="0.68" stop-color="#8B7980"/>
<stop offset="0.74" stop-color="#AF755F"/>
<stop offset="0.81" stop-color="#CC7245"/>
<stop offset="0.87" stop-color="#E07032"/>
<stop offset="0.94" stop-color="#EC6F27"/>
<stop offset="1" stop-color="#F16F24"/>
</linearGradient>
<linearGradient id="paint5_linear_60874_3090" x1="52.5317" y1="18.065" x2="52.5317" y2="58.6613" gradientUnits="userSpaceOnUse">
<stop stop-color="#0087FF"/>
<stop offset="1" stop-color="#236DB3"/>
</linearGradient>
<linearGradient id="paint6_linear_60874_3090" x1="2.14508" y1="30.6729" x2="2.14508" y2="52.051" gradientUnits="userSpaceOnUse">
<stop stop-color="#0087FF"/>
<stop offset="1" stop-color="#CC2028"/>
</linearGradient>
<linearGradient id="paint7_linear_60874_3090" x1="31.4371" y1="67" x2="31.4371" y2="40.9771" gradientUnits="userSpaceOnUse">
<stop offset="0.53" stop-color="white" stop-opacity="0"/>
<stop offset="1" stop-color="white" stop-opacity="0.4"/>
</linearGradient>
<linearGradient id="paint8_linear_60874_3090" x1="20.2832" y1="63.1596" x2="20.2832" y2="6.55476e-06" gradientUnits="userSpaceOnUse">
<stop offset="0.53" stop-color="white" stop-opacity="0"/>
<stop offset="1" stop-color="white" stop-opacity="0.4"/>
</linearGradient>
<linearGradient id="paint9_linear_60874_3090" x1="42.532" y1="63.1596" x2="42.532" y2="6.55476e-06" gradientUnits="userSpaceOnUse">
<stop offset="0.53" stop-color="white" stop-opacity="0"/>
<stop offset="1" stop-color="white" stop-opacity="0.4"/>
</linearGradient>
<linearGradient id="paint10_linear_60874_3090" x1="10.4683" y1="58.6613" x2="10.4683" y2="-1.24858e-06" gradientUnits="userSpaceOnUse">
<stop offset="0.53" stop-color="white" stop-opacity="0"/>
<stop offset="1" stop-color="white" stop-opacity="0.4"/>
</linearGradient>
<linearGradient id="paint11_linear_60874_3090" x1="52.4888" y1="58.6613" x2="52.4888" y2="-1.24858e-06" gradientUnits="userSpaceOnUse">
<stop offset="0.53" stop-color="white" stop-opacity="0"/>
<stop offset="1" stop-color="white" stop-opacity="0.4"/>
</linearGradient>
<linearGradient id="paint12_linear_60874_3090" x1="2.09955" y1="52.051" x2="2.09955" y2="9.75748e-07" gradientUnits="userSpaceOnUse">
<stop offset="0.53" stop-color="white" stop-opacity="0"/>
<stop offset="1" stop-color="white" stop-opacity="0.4"/>
</linearGradient>
<linearGradient id="paint13_linear_60874_3090" x1="60.6326" y1="52.051" x2="60.6326" y2="9.75748e-07" gradientUnits="userSpaceOnUse">
<stop offset="0.53" stop-color="white" stop-opacity="0"/>
<stop offset="1" stop-color="white" stop-opacity="0.4"/>
</linearGradient>
<clipPath id="clip0_60874_3090">
<rect width="126" height="67" fill="white"/>
</clipPath>
</defs>
</svg>
